<?xml version="1.0" encoding="utf-8"?>
<!-- Generator: Adobe Illustrator 23.0.3, SVG Export Plug-In . SVG Version: 6.00 Build 0)  -->
<svg version="1.1" id="Layer_1" xmlns="http://www.w3.org/2000/svg" xmlns:xlink="http://www.w3.org/1999/xlink" x="0px" y="0px"
	 viewBox="0 0 512 512" style="enable-background:new 0 0 512 512;" xml:space="preserve">
<style type="text/css">
	.st0{fill:#FF6D15;}
	.st1{fill:#FFD12B;}
	.st2{fill:#80D398;}
	.st3{fill:#00B44B;}
</style>
<g id="surface1">
	<path class="st0" d="M81.9,401.7H55.2C24.7,401.7,0,426.4,0,456.8V497c0,8.3,6.7,15,15,15h107.1c8.3,0,15-6.7,15-15v-40.2
		C137.1,426.4,112.4,401.7,81.9,401.7z"/>
	<path class="st1" d="M189.1,321.3h-26.8c-30.4,0-55.2,24.8-55.2,55.2V497c0,8.3,6.7,15,15,15h107.1c8.3,0,15-6.7,15-15V376.5
		C244.2,346.1,219.5,321.3,189.1,321.3z"/>
	<path class="st2" d="M296.2,241h-26.8c-30.4,0-55.2,24.8-55.2,55.2V497c0,8.3,6.7,15,15,15h107.1c8.3,0,15-6.7,15-15V296.2
		C351.3,265.8,326.6,241,296.2,241z"/>
	<path class="st3" d="M509.1,150.7L401.9,6.1c-2.8-3.8-7.3-6.1-12.1-6.1s-9.2,2.3-12.1,6.1L270.7,150.7c-3.4,4.6-3.9,10.6-1.3,15.7
		c2.6,5.1,7.7,8.3,13.4,8.3h38.6V497c0,8.3,6.7,15,15,15h107.1c8.3,0,15-6.7,15-15V174.6H497c5.7,0,10.8-3.2,13.4-8.3
		C512.9,161.3,512.4,155.2,509.1,150.7z"/>
</g>
</svg>
