<?xml version="1.0" encoding="utf-8"?>
<!-- Generator: Adobe Illustrator 23.0.3, SVG Export Plug-In . SVG Version: 6.00 Build 0)  -->
<svg version="1.1" id="Layer_1" xmlns="http://www.w3.org/2000/svg" xmlns:xlink="http://www.w3.org/1999/xlink" x="0px" y="0px"
	 viewBox="0 0 512 512" style="enable-background:new 0 0 512 512;" xml:space="preserve">
<style type="text/css">
	.st0{fill:#EBF6FF;}
	.st1{fill:#FFD12B;}
	.st2{fill:#80D398;}
	.st3{fill:#FF6D15;}
	.st4{fill:#00345C;}
	.st5{fill:#005AB1;}
</style>
<g id="surface1_1_">
	<path class="st0" d="M438,76C389.7,27.6,325.4,1,257,1S124.3,27.6,76,76S1,188.6,1,257s26.6,132.7,75,181s112.6,75,181,75
		s132.7-26.6,181-75c48.4-48.4,75-112.6,75-181S486.4,124.3,438,76z"/>
	<path class="st0" d="M438,76C389.7,27.6,325.4,1,257,1v512c68.4,0,132.7-26.6,181-75c48.4-48.4,75-112.6,75-181S486.4,124.3,438,76
		z"/>
	<path class="st1" d="M438,76C389.7,27.6,325.4,1,257,1S124.3,27.6,76,76c-2.8,2.8-4.4,6.6-4.4,10.6s1.6,7.8,4.4,10.6l56.8,56.8
		c5.9,5.9,15.4,5.9,21.2,0c27.5-27.5,64.1-42.7,103-42.7s75.5,15.2,103,42.7c2.9,2.9,6.8,4.4,10.6,4.4s7.7-1.5,10.6-4.4L438,97.2
		c2.8-2.8,4.4-6.6,4.4-10.6S440.8,78.8,438,76z"/>
	<path class="st1" d="M438,76C389.7,27.6,325.4,1,257,1v110.3c38.9,0,75.5,15.2,103,42.7c2.9,2.9,6.8,4.4,10.6,4.4
		c3.8,0,7.7-1.5,10.6-4.4L438,97.2c2.8-2.8,4.4-6.6,4.4-10.6S440.8,78.8,438,76z"/>
	<path class="st2" d="M111.3,257c0-38.9,15.1-75.5,42.7-103c2.8-2.8,4.4-6.6,4.4-10.6s-1.6-7.8-4.4-10.6L97.2,76
		c-5.9-5.9-15.4-5.9-21.2,0C27.6,124.3,1,188.6,1,257s26.6,132.7,75,181c2.8,2.8,6.6,4.4,10.6,4.4s7.8-1.6,10.6-4.4l56.8-56.8
		c5.9-5.9,5.9-15.4,0-21.2C126.5,332.5,111.3,295.9,111.3,257z"/>
	<path class="st3" d="M438,76c-2.8-2.8-6.6-4.4-10.6-4.4s-7.8,1.6-10.6,4.4L360,132.8c-5.9,5.9-5.9,15.4,0,21.2
		c27.5,27.5,42.7,64.1,42.7,103s-15.1,75.5-42.7,103c-5.9,5.9-5.9,15.4,0,21.2l56.8,56.8c2.8,2.8,6.6,4.4,10.6,4.4s7.8-1.6,10.6-4.4
		c48.4-48.4,75-112.6,75-181S486.4,124.3,438,76z"/>
	<path class="st4" d="M421.8,242.6c-23.5-6.8-141.7-40.8-164.8-40.8c-30.4,0-55.2,24.8-55.2,55.2s24.7,55.2,55.2,55.2
		c23.1,0,141.4-34,164.8-40.8c6.4-1.9,10.8-7.7,10.8-14.4S428.3,244.5,421.8,242.6z"/>
	<path class="st5" d="M201.8,257c0,30.4,24.7,55.2,55.2,55.2V201.8C226.6,201.8,201.8,226.6,201.8,257z"/>
	<path class="st5" d="M290.3,385.6h-66.5c-8.3,0-15-6.7-15-15s6.7-15,15-15h66.5c8.3,0,15,6.7,15,15S298.6,385.6,290.3,385.6z"/>
	<path class="st4" d="M290.3,355.6H257v30h33.3c8.3,0,15-6.7,15-15S298.6,355.6,290.3,355.6z"/>
</g>
</svg>
