<?xml version="1.0" encoding="utf-8"?>
<!-- Generator: Adobe Illustrator 23.0.3, SVG Export Plug-In . SVG Version: 6.00 Build 0)  -->
<svg version="1.1" id="Layer_1" xmlns="http://www.w3.org/2000/svg" xmlns:xlink="http://www.w3.org/1999/xlink" x="0px" y="0px"
	 viewBox="0 0 512 512" style="enable-background:new 0 0 512 512;" xml:space="preserve">
<style type="text/css">
	.st0{fill:#005AB1;}
	.st1{fill:#00345C;}
	.st2{fill:#FFCEBF;}
	.st3{fill:#FFD12B;}
</style>
<g id="surface1">
	<path class="st0" d="M434.6,282.4c-8.9-8.9-20.7-13.8-33.3-13.8s-24.4,4.9-33.3,13.8l-81.7,81.7h-59.2l-81.7-81.7
		c-8.9-8.9-20.7-13.8-33.3-13.8s-24.4,4.9-33.3,13.8c-18.4,18.4-18.4,48.3,0,66.7l98.7,98.7V498c0,8.3,6.7,15,15,15H321
		c8.3,0,15-6.7,15-15v-50.3l98.7-98.7C453,330.7,453,300.8,434.6,282.4z"/>
	<path class="st1" d="M434.6,282.4c-8.9-8.9-20.7-13.8-33.3-13.8s-24.4,4.9-33.3,13.8l-81.7,81.7h-29.6V513H321c8.3,0,15-6.7,15-15
		v-50.3l98.7-98.7C453,330.7,453,300.8,434.6,282.4z"/>
	<path class="st2" d="M256.7,239.7c-42.6,0-77.2,34.6-77.2,77.2s34.6,77.2,77.2,77.2s77.2-34.6,77.2-77.2
		C333.9,274.3,299.3,239.7,256.7,239.7z"/>
	<path class="st3" d="M371.4,84.3c-1.8-5.4-6.5-9.4-12.1-10.2l-61.6-8.9L270.2,9.4c-2.5-5.1-7.7-8.4-13.4-8.4
		c-5.7,0-10.9,3.2-13.5,8.4l-27.5,55.8l-61.6,8.9c-5.6,0.8-10.3,4.8-12.1,10.2c-1.8,5.4-0.3,11.4,3.8,15.4l44.6,43.4L180,204.4
		c-1,5.6,1.3,11.3,6,14.7c2.6,1.9,5.7,2.9,8.8,2.9c2.4,0,4.8-0.6,7-1.7l55.1-29l55.1,29c2.2,1.2,4.6,1.7,7,1.7l0,0
		c8.3,0,15-6.7,15-15c0-1.2-0.1-2.3-0.4-3.4L323,143.1l44.6-43.4C371.7,95.7,373.2,89.8,371.4,84.3z"/>
	<path class="st2" d="M333.9,316.9c0-42.6-34.6-77.2-77.2-77.2v154.4C299.3,394.1,333.9,359.4,333.9,316.9z"/>
	<path class="st3" d="M371.4,84.3c-1.8-5.4-6.5-9.4-12.1-10.2l-61.6-8.9L270.2,9.4c-2.5-5.1-7.7-8.4-13.4-8.4v190.3l55.1,29
		c2.2,1.2,4.6,1.7,7,1.7l0,0c8.3,0,15-6.7,15-15c0-1.2-0.1-2.3-0.4-3.4L323,143.1l44.6-43.4C371.7,95.7,373.2,89.8,371.4,84.3z"/>
</g>
</svg>
