<svg height="512pt" viewBox="0 0 512 512" width="512pt" xmlns="http://www.w3.org/2000/svg"><path d="m421 90h-330l-91 91 101.421875 124.515625 154.578125 145.484375 161.304688-151.816406 94.695312-118.183594zm0 0" fill="#d3f3c2"/><path d="m512 181-91-91h-165v361l161.304688-151.816406zm0 0" fill="#b3dfb3"/><path d="m421 90v331h-330v-421h240zm0 0" fill="#54e360"/><path d="m421 90v331h-165v-421h75zm0 0" fill="#00cc71"/><path d="m346 0h-15v90h90v-15c0-41.351562-33.648438-75-75-75zm0 0" fill="#00b44b"/><path d="m341.308594 340.710938 1.25 16.582031-23.203125 4.078125-63.355469 59.628906-63.355469-59.628906-23.203125-4.078125 1.25-16.582031-170.691406-159.710938v331h512v-331zm0 0" fill="#efffcc"/><path d="m512 181-170.691406 159.710938 1.25 16.582031-23.203125 4.078125-63.355469 59.628906v91h256zm0 0" fill="#d3f3c2"/><path d="m437.304688 424.707031-95.996094-83.996093-21.953125 20.660156 98.203125 85.921875zm0 0" fill="#b3dfb3"/><path d="m94.441406 447.292969 98.203125-85.921875-21.953125-20.660156-95.996094 83.996093zm0 0" fill="#d3f3c2"/><path d="m301 226c0 19.5-12.597656 36-30 42.300781v32.699219h-30v-32.699219c-17.402344-6.300781-30-22.800781-30-42.300781h30c0 8.398438 6.597656 15 15 15s15-6.601562 15-15c0-8.402344-6.597656-15-15-15-24.902344 0-45-20.101562-45-45 0-19.5 12.597656-36 30-42.300781v-33.699219h30v33.699219c17.402344 6.300781 30 22.800781 30 42.300781h-30c0-8.402344-6.597656-15-15-15s-15 6.597656-15 15c0 8.398438 6.597656 15 15 15 24.902344 0 45 20.097656 45 45zm0 0" fill="#efffcc"/><g fill="#d3f3c2"><path d="m301 226c0 19.5-12.597656 36-30 42.300781v32.699219h-15v-60c8.402344 0 15-6.601562 15-15 0-8.402344-6.597656-15-15-15v-30c24.902344 0 45 20.097656 45 45zm0 0"/><path d="m256 151v-61h15v33.699219c17.402344 6.300781 30 22.800781 30 42.300781h-30c0-8.402344-6.597656-15-15-15zm0 0"/></g></svg>