<svg height="512pt" viewBox="0 0 512 512" width="512pt" xmlns="http://www.w3.org/2000/svg"><path d="m341.160156 58.855469-40.785156-19.015625-40.785156-19.019532-119.601563 43.53125-50.714843 108.757813 122.351562 57.050781 122.351562 58.054688 50.714844-109.753906zm0 0" fill="#54e360"/><path d="m211 0h-90l-90 90v120h270v-120zm0 0" fill="#54e360"/><path d="m301 90-90-90h-45v210h135zm0 0" fill="#00cc71"/><path d="m286 90h15v-90h-90v15c0 41.351562 33.648438 75 75 75zm0 0" fill="#00b44b"/><path d="m121 15v-15h-90v90h15c41.351562 0 75-33.648438 75-75zm0 0" fill="#00cc71"/><path d="m0 180h451v332h-451zm0 0" fill="#596c76"/><path d="m0 346h451v166h-451zm0 0" fill="#465a61"/><path d="m309.699219 271-75 75 75 75h202.300781v-150zm0 0" fill="#ffda2d"/><path d="m512 346v75h-202.300781l-75-75zm0 0" fill="#fdbf00"/><path d="m331 331h30v30h-30zm0 0" fill="#596c76"/><path d="m61 240h30v211h-30zm0 0" fill="#465a61"/><path d="m61 346h30v105h-30zm0 0" fill="#3b4a51"/><path d="m331 346h30v15h-30zm0 0" fill="#465a61"/><path d="m371.097656 172.121094 13.59375 6.339844 38.035156-81.570313-81.566406-38.035156-6.339844 13.59375c-17.476562 37.480469-1.203124 82.195312 36.277344 99.671875zm0 0" fill="#00cc71"/></svg>